# xmcd CD database file
#
# Track frame offsets:
#	150
#	16899
#	37583
#	65970
#	88206
#	106637
#	130460
#	147105
#	159885
#	177657
#	207514
#	234801
#
# Disc length: 3501 seconds
#
# Revision: 0
# Processed by: cddbd v1.5.1PL0 Copyright (c) Steve Scherf et al.
# Submitted via: CDex 1.51
#
DISCID=9b0dab0c
DTITLE=six.byseven - Left Luggage At The Peveril Hotel
DYEAR=2004
DGENRE=Rock
TTITLE0=Around
TTITLE1=What’s Wrong With Understanding
TTITLE2=Ready For You Now(original)
TTITLE3=Bring Down The Government
TTITLE4=My Own Haunted Life
TTITLE5=AC Harmonics - international peoples gang. remix
TTITLE6=Clouds
TTITLE7=Dreaming Of A better Life
TTITLE8=I’ll Take My Chances With You
TTITLE9=Here Comes The Sun
TTITLE10=Wasted
TTITLE11=Wallflower
EXTD=YEAR: 2004
EXTT0=
EXTT1=
EXTT2=
EXTT3=
EXTT4=
EXTT5=
EXTT6=
EXTT7=
EXTT8=
EXTT9=
EXTT10=
EXTT11=
PLAYORDER=
